<?xml version="1.0" encoding="UTF-8"?>
<svg xmlns="http://www.w3.org/2000/svg" xmlns:xlink="http://www.w3.org/1999/xlink" width="30pt" height="30.000001pt" viewBox="0 0 30 30.000001" version="1.2">
<defs>
<clipPath id="clip1">
  <path d="M 1.535156 0.917969 L 29.117188 0.917969 L 29.117188 28.496094 L 1.535156 28.496094 Z M 1.535156 0.917969 "/>
</clipPath>
</defs>
<g id="surface1">
<g clip-path="url(#clip1)" clip-rule="nonzero">
<path style=" stroke:none;fill-rule:nonzero;fill:rgb(100%,100%,100%);fill-opacity:1;" d="M 9.195312 0.917969 C 4.964844 0.917969 1.535156 4.347656 1.535156 8.578125 L 1.535156 20.835938 C 1.535156 25.066406 4.964844 28.496094 9.195312 28.496094 L 21.453125 28.496094 C 25.6875 28.496094 29.117188 25.066406 29.117188 20.835938 L 29.117188 8.578125 C 29.117188 4.347656 25.6875 0.917969 21.453125 0.917969 Z M 24.519531 3.980469 C 25.367188 3.980469 26.050781 4.667969 26.050781 5.515625 C 26.050781 6.359375 25.367188 7.046875 24.519531 7.046875 C 23.671875 7.046875 22.988281 6.359375 22.988281 5.515625 C 22.988281 4.667969 23.671875 3.980469 24.519531 3.980469 Z M 15.324219 7.046875 C 19.554688 7.046875 22.988281 10.476562 22.988281 14.707031 C 22.988281 18.9375 19.554688 22.367188 15.324219 22.367188 C 11.09375 22.367188 7.664062 18.9375 7.664062 14.707031 C 7.664062 10.476562 11.09375 7.046875 15.324219 7.046875 Z M 15.324219 10.109375 C 15.023438 10.109375 14.726562 10.140625 14.429688 10.199219 C 14.132812 10.257812 13.847656 10.34375 13.566406 10.460938 C 13.289062 10.574219 13.023438 10.71875 12.773438 10.886719 C 12.519531 11.054688 12.289062 11.242188 12.074219 11.457031 C 11.863281 11.671875 11.671875 11.902344 11.503906 12.152344 C 11.335938 12.40625 11.195312 12.667969 11.078125 12.949219 C 10.964844 13.226562 10.875 13.515625 10.816406 13.8125 C 10.757812 14.105469 10.730469 14.40625 10.730469 14.707031 C 10.730469 15.007812 10.757812 15.308594 10.816406 15.605469 C 10.875 15.898438 10.964844 16.1875 11.078125 16.464844 C 11.195312 16.746094 11.335938 17.011719 11.503906 17.261719 C 11.671875 17.511719 11.863281 17.746094 12.074219 17.957031 C 12.289062 18.171875 12.519531 18.363281 12.773438 18.53125 C 13.023438 18.699219 13.289062 18.839844 13.566406 18.953125 C 13.847656 19.070312 14.132812 19.15625 14.429688 19.214844 C 14.726562 19.273438 15.023438 19.304688 15.324219 19.304688 C 15.628906 19.304688 15.925781 19.273438 16.222656 19.214844 C 16.519531 19.15625 16.804688 19.070312 17.085938 18.953125 C 17.363281 18.839844 17.628906 18.699219 17.878906 18.53125 C 18.128906 18.363281 18.363281 18.171875 18.578125 17.957031 C 18.789062 17.746094 18.980469 17.511719 19.148438 17.261719 C 19.316406 17.011719 19.457031 16.746094 19.574219 16.464844 C 19.6875 16.1875 19.777344 15.898438 19.835938 15.605469 C 19.894531 15.308594 19.921875 15.007812 19.921875 14.707031 C 19.921875 14.40625 19.894531 14.105469 19.835938 13.8125 C 19.777344 13.515625 19.6875 13.226562 19.574219 12.949219 C 19.457031 12.667969 19.316406 12.40625 19.148438 12.152344 C 18.980469 11.902344 18.789062 11.671875 18.578125 11.457031 C 18.363281 11.242188 18.128906 11.054688 17.878906 10.886719 C 17.628906 10.71875 17.363281 10.574219 17.085938 10.460938 C 16.804688 10.34375 16.519531 10.257812 16.222656 10.199219 C 15.925781 10.140625 15.628906 10.109375 15.324219 10.109375 Z M 15.324219 10.109375 "/>
</g>
</g>
</svg>
