<?xml version="1.0" encoding="UTF-8"?>
<svg xmlns="http://www.w3.org/2000/svg" xmlns:xlink="http://www.w3.org/1999/xlink" width="30pt" height="30.000001pt" viewBox="0 0 30 30.000001" version="1.2">
<defs>
<clipPath id="clip1">
  <path d="M 1.019531 0.589844 L 28.601562 0.589844 L 28.601562 28.171875 L 1.019531 28.171875 Z M 1.019531 0.589844 "/>
</clipPath>
</defs>
<g id="surface1">
<g clip-path="url(#clip1)" clip-rule="nonzero">
<path style=" stroke:none;fill-rule:nonzero;fill:rgb(100%,100%,100%);fill-opacity:1;" d="M 14.808594 0.589844 C 7.195312 0.589844 1.019531 6.765625 1.019531 14.378906 C 1.019531 16.96875 1.746094 19.378906 2.984375 21.449219 L 1.144531 28.171875 L 8.007812 26.367188 C 10.015625 27.511719 12.335938 28.171875 14.808594 28.171875 C 22.425781 28.171875 28.601562 21.996094 28.601562 14.378906 C 28.601562 6.765625 22.425781 0.589844 14.808594 0.589844 Z M 10.089844 7.949219 C 10.3125 7.949219 10.542969 7.945312 10.742188 7.957031 C 10.988281 7.960938 11.257812 7.980469 11.511719 8.546875 C 11.816406 9.21875 12.480469 10.910156 12.566406 11.082031 C 12.652344 11.253906 12.710938 11.453125 12.59375 11.679688 C 12.480469 11.90625 12.421875 12.046875 12.253906 12.25 C 12.085938 12.449219 11.898438 12.695312 11.742188 12.84375 C 11.570312 13.015625 11.394531 13.203125 11.589844 13.542969 C 11.789062 13.886719 12.476562 15.003906 13.488281 15.90625 C 14.792969 17.074219 15.894531 17.429688 16.238281 17.601562 C 16.578125 17.773438 16.777344 17.746094 16.976562 17.515625 C 17.179688 17.292969 17.832031 16.523438 18.058594 16.179688 C 18.285156 15.839844 18.511719 15.898438 18.824219 16.011719 C 19.136719 16.121094 20.816406 16.949219 21.160156 17.121094 C 21.503906 17.292969 21.726562 17.378906 21.8125 17.515625 C 21.902344 17.660156 21.902344 18.34375 21.617188 19.140625 C 21.332031 19.9375 19.941406 20.707031 19.316406 20.761719 C 18.683594 20.820312 18.09375 21.046875 15.214844 19.910156 C 11.738281 18.542969 9.546875 14.984375 9.375 14.753906 C 9.203125 14.527344 7.984375 12.902344 7.984375 11.226562 C 7.984375 9.542969 8.867188 8.71875 9.175781 8.375 C 9.492188 8.03125 9.859375 7.949219 10.089844 7.949219 Z M 10.089844 7.949219 "/>
</g>
</g>
</svg>
