<?xml version="1.0" encoding="UTF-8"?>
<svg xmlns="http://www.w3.org/2000/svg" xmlns:xlink="http://www.w3.org/1999/xlink" width="300pt" height="30.000001pt" viewBox="0 0 300 30.000001" version="1.2">
<g id="surface1">
<path style=" stroke:none;fill-rule:nonzero;fill:rgb(100%,100%,100%);fill-opacity:1;" d="M 292.035156 8.488281 C 292.433594 7.972656 292.09375 6.996094 291.296875 7.226562 C 289.476562 7.859375 287.828125 9.40625 286.289062 10.613281 C 284.753906 11.761719 283.21875 12.910156 281.742188 14.054688 C 281.625 14 281.511719 14 281.398438 14 C 278.042969 14.054688 274.628906 14.054688 271.273438 14.113281 L 274.6875 11.359375 C 276.394531 9.980469 278.382812 8.660156 279.863281 6.996094 C 280.433594 6.308594 279.691406 5.332031 278.894531 5.734375 C 277.074219 6.652344 275.484375 8.257812 274.003906 9.636719 C 272.523438 11.015625 271.101562 12.507812 269.851562 14.054688 C 266.097656 14.113281 262.285156 14.171875 258.53125 14.171875 C 259.386719 12.851562 260.296875 11.53125 261.261719 10.210938 C 262.398438 8.660156 263.992188 7.167969 264.675781 5.390625 C 264.902344 4.816406 264.105469 4.242188 263.652344 4.585938 C 262.058594 5.5625 261.035156 7.570312 260.011719 9.0625 C 258.929688 10.726562 257.90625 12.390625 257.054688 14.171875 C 235.382812 14.402344 213.707031 14.6875 192.035156 15.03125 C 177.816406 15.375 163.878906 15.664062 150.058594 16.007812 L 150 16.007812 C 136.0625 15.664062 122.242188 15.375 108.019531 15.375 C 86.40625 14.800781 64.734375 14.574219 43.058594 14.34375 C 42.148438 12.5625 41.183594 10.84375 40.101562 9.234375 C 39.078125 7.742188 37.996094 5.734375 36.460938 4.757812 C 35.949219 4.472656 35.210938 4.988281 35.4375 5.5625 C 36.121094 7.398438 37.714844 8.832031 38.851562 10.382812 C 39.816406 11.644531 40.671875 12.964844 41.582031 14.34375 C 37.828125 14.285156 34.015625 14.226562 30.261719 14.226562 C 29.011719 12.621094 27.589844 11.1875 26.109375 9.808594 C 24.628906 8.429688 23.039062 6.824219 21.21875 5.90625 C 20.421875 5.503906 19.683594 6.480469 20.25 7.167969 C 21.671875 8.832031 23.71875 10.097656 25.425781 11.53125 L 28.839844 14.285156 C 25.371094 14.113281 22.015625 14.113281 18.601562 14.054688 C 18.488281 14.054688 18.375 14.054688 18.257812 14.113281 C 16.78125 12.910156 15.246094 11.761719 13.707031 10.667969 C 12.171875 9.523438 10.523438 7.914062 8.703125 7.285156 C 7.90625 6.996094 7.566406 8.03125 7.964844 8.546875 C 9.101562 9.980469 10.980469 10.957031 12.515625 12.046875 C 14.050781 13.136719 15.585938 14.171875 17.121094 15.203125 C 14.164062 16.984375 10.980469 18.761719 8.53125 21.058594 C 7.792969 21.746094 8.761719 22.722656 9.5 22.378906 C 12.742188 20.828125 15.8125 18.246094 18.65625 16.066406 C 21.957031 16.121094 25.257812 16.179688 28.613281 16.238281 C 27.304688 17.15625 25.996094 18.132812 24.6875 19.105469 C 23.152344 20.253906 21.273438 21.34375 20.078125 22.835938 C 19.566406 23.527344 20.195312 24.328125 20.988281 23.984375 C 22.695312 23.183594 24.230469 21.632812 25.710938 20.484375 C 27.359375 19.105469 29.066406 17.785156 30.660156 16.351562 C 30.660156 16.351562 30.660156 16.292969 30.71875 16.292969 L 41.183594 16.46875 C 40.160156 17.441406 39.191406 18.417969 38.167969 19.394531 C 36.859375 20.65625 34.925781 22.035156 34.1875 23.699219 C 33.902344 24.386719 34.472656 24.960938 35.152344 24.675781 C 36.804688 23.929688 38.167969 21.976562 39.476562 20.714844 C 40.84375 19.335938 42.148438 17.960938 43.457031 16.582031 C 64.902344 16.925781 86.347656 17.328125 107.792969 17.613281 L 108.019531 17.613281 C 121.445312 17.558594 134.472656 17.730469 147.554688 17.84375 C 147.609375 17.84375 147.726562 17.902344 147.839844 17.902344 L 152.273438 17.902344 C 152.390625 17.902344 152.445312 17.902344 152.558594 17.84375 C 165.699219 17.730469 178.839844 17.558594 192.320312 17.269531 C 213.707031 16.984375 235.210938 16.582031 256.597656 16.238281 C 257.90625 17.671875 259.273438 18.992188 260.578125 20.371094 C 261.886719 21.691406 263.195312 23.582031 264.902344 24.328125 C 265.527344 24.617188 266.15625 24.042969 265.871094 23.355469 C 265.074219 21.691406 263.195312 20.3125 261.886719 19.050781 C 260.921875 18.074219 259.898438 17.097656 258.875 16.121094 L 269.339844 15.949219 C 269.339844 15.949219 269.339844 16.007812 269.398438 16.007812 C 270.988281 17.441406 272.640625 18.761719 274.34375 20.140625 C 275.824219 21.34375 277.359375 22.894531 279.066406 23.640625 C 279.863281 23.984375 280.488281 23.125 279.976562 22.492188 C 278.78125 21 276.90625 19.910156 275.371094 18.761719 C 274.0625 17.785156 272.753906 16.867188 271.445312 15.894531 C 274.742188 15.835938 278.042969 15.777344 281.398438 15.71875 C 284.300781 17.902344 287.371094 20.484375 290.558594 22.035156 C 291.355469 22.4375 292.265625 21.402344 291.523438 20.714844 C 289.078125 18.417969 285.894531 16.640625 282.933594 14.859375 C 284.472656 13.828125 286.007812 12.792969 287.542969 11.703125 C 289.019531 10.957031 290.898438 9.980469 292.035156 8.488281 Z M 292.035156 8.488281 "/>
</g>
</svg>
