<?xml version="1.0" encoding="UTF-8"?>
<svg xmlns="http://www.w3.org/2000/svg" xmlns:xlink="http://www.w3.org/1999/xlink" width="150pt" height="30.000001pt" viewBox="0 0 150 30.000001" version="1.2">
<g id="surface1">
<path style=" stroke:none;fill-rule:nonzero;fill:rgb(78.42865%,19.60907%,18.818665%);fill-opacity:1;" d="M 146.019531 11.503906 C 146.21875 11.246094 146.046875 10.757812 145.648438 10.871094 C 144.738281 11.1875 143.914062 11.960938 143.144531 12.5625 C 142.378906 13.136719 141.609375 13.710938 140.871094 14.285156 C 140.8125 14.257812 140.757812 14.257812 140.699219 14.257812 C 139.023438 14.285156 137.316406 14.285156 135.636719 14.316406 L 137.34375 12.9375 C 138.195312 12.25 139.191406 11.589844 139.929688 10.757812 C 140.214844 10.410156 139.847656 9.925781 139.449219 10.125 C 138.539062 10.585938 137.742188 11.386719 137.003906 12.078125 C 136.261719 12.765625 135.550781 13.511719 134.925781 14.285156 C 133.046875 14.316406 131.144531 14.34375 129.265625 14.34375 C 129.691406 13.683594 130.148438 13.023438 130.632812 12.363281 C 131.199219 11.589844 131.996094 10.84375 132.335938 9.953125 C 132.453125 9.664062 132.054688 9.378906 131.824219 9.550781 C 131.03125 10.039062 130.515625 11.042969 130.003906 11.789062 C 129.464844 12.621094 128.953125 13.453125 128.527344 14.34375 C 117.691406 14.457031 106.855469 14.601562 96.019531 14.773438 C 88.90625 14.945312 81.941406 15.089844 75.027344 15.261719 L 75 15.261719 C 68.03125 15.089844 61.121094 14.945312 54.011719 14.945312 C 43.203125 14.660156 32.367188 14.542969 21.53125 14.429688 C 21.074219 13.539062 20.589844 12.679688 20.050781 11.875 C 19.539062 11.128906 19 10.125 18.230469 9.636719 C 17.976562 9.492188 17.605469 9.753906 17.71875 10.039062 C 18.058594 10.957031 18.855469 11.675781 19.425781 12.449219 C 19.910156 13.082031 20.335938 13.742188 20.789062 14.429688 C 18.914062 14.402344 17.007812 14.371094 15.132812 14.371094 C 14.503906 13.570312 13.792969 12.851562 13.054688 12.164062 C 12.316406 11.472656 11.519531 10.671875 10.609375 10.210938 C 10.210938 10.011719 9.839844 10.5 10.125 10.84375 C 10.835938 11.675781 11.859375 12.304688 12.714844 13.023438 L 14.417969 14.402344 C 12.683594 14.316406 11.007812 14.316406 9.300781 14.285156 C 9.242188 14.285156 9.1875 14.285156 9.128906 14.316406 C 8.390625 13.710938 7.621094 13.136719 6.855469 12.59375 C 6.085938 12.019531 5.261719 11.214844 4.351562 10.898438 C 3.953125 10.757812 3.78125 11.273438 3.980469 11.53125 C 4.550781 12.25 5.488281 12.738281 6.257812 13.28125 C 7.023438 13.828125 7.792969 14.34375 8.5625 14.859375 C 7.082031 15.75 5.488281 16.640625 4.265625 17.789062 C 3.898438 18.132812 4.378906 18.621094 4.75 18.449219 C 6.371094 17.671875 7.90625 16.382812 9.328125 15.289062 C 10.976562 15.320312 12.628906 15.347656 14.304688 15.375 C 13.652344 15.835938 12.996094 16.324219 12.34375 16.8125 C 11.574219 17.386719 10.636719 17.929688 10.039062 18.675781 C 9.785156 19.019531 10.097656 19.421875 10.496094 19.25 C 11.347656 18.847656 12.117188 18.074219 12.855469 17.5 C 13.679688 16.8125 14.535156 16.152344 15.328125 15.433594 C 15.328125 15.433594 15.328125 15.40625 15.359375 15.40625 L 20.589844 15.492188 C 20.078125 15.980469 19.597656 16.46875 19.085938 16.953125 C 18.429688 17.585938 17.464844 18.273438 17.09375 19.105469 C 16.953125 19.453125 17.234375 19.738281 17.578125 19.59375 C 18.402344 19.222656 19.085938 18.246094 19.738281 17.613281 C 20.421875 16.925781 21.074219 16.238281 21.730469 15.550781 C 32.453125 15.722656 43.175781 15.921875 53.898438 16.066406 L 54.011719 16.066406 C 60.722656 16.035156 67.234375 16.121094 73.777344 16.179688 C 73.804688 16.179688 73.863281 16.207031 73.917969 16.207031 L 76.136719 16.207031 C 76.195312 16.207031 76.222656 16.207031 76.28125 16.179688 C 82.851562 16.121094 89.417969 16.035156 96.160156 15.894531 C 106.855469 15.75 117.605469 15.550781 128.300781 15.375 C 128.953125 16.09375 129.636719 16.753906 130.289062 17.441406 C 130.945312 18.101562 131.597656 19.050781 132.453125 19.421875 C 132.765625 19.566406 133.078125 19.28125 132.933594 18.933594 C 132.535156 18.101562 131.597656 17.414062 130.945312 16.78125 C 130.460938 16.296875 129.949219 15.808594 129.4375 15.320312 L 134.671875 15.234375 C 134.671875 15.234375 134.671875 15.261719 134.699219 15.261719 C 135.496094 15.980469 136.320312 16.640625 137.171875 17.328125 C 137.914062 17.929688 138.679688 18.707031 139.535156 19.078125 C 139.929688 19.25 140.246094 18.820312 139.988281 18.503906 C 139.390625 17.757812 138.453125 17.214844 137.683594 16.640625 C 137.03125 16.152344 136.375 15.691406 135.722656 15.203125 C 137.371094 15.175781 139.023438 15.148438 140.699219 15.117188 C 142.148438 16.207031 143.6875 17.5 145.277344 18.273438 C 145.675781 18.476562 146.132812 17.960938 145.761719 17.613281 C 144.539062 16.46875 142.945312 15.578125 141.46875 14.6875 C 142.234375 14.171875 143.003906 13.65625 143.769531 13.109375 C 144.511719 12.738281 145.449219 12.25 146.019531 11.503906 Z M 146.019531 11.503906 "/>
</g>
</svg>
