<?xml version="1.0" encoding="UTF-8"?>
<svg xmlns="http://www.w3.org/2000/svg" xmlns:xlink="http://www.w3.org/1999/xlink" width="255pt" height="637.499986pt" viewBox="0 0 255 637.499986" version="1.2">
<defs>
<clipPath id="clip1">
  <path d="M 4.117188 233 L 110 233 L 110 396.8125 L 4.117188 396.8125 Z M 4.117188 233 "/>
</clipPath>
<clipPath id="clip2">
  <path d="M 144 234 L 250 234 L 250 396.8125 L 144 396.8125 Z M 144 234 "/>
</clipPath>
<clipPath id="clip3">
  <path d="M 4.117188 233 L 110 233 L 110 396.8125 L 4.117188 396.8125 Z M 4.117188 233 "/>
</clipPath>
<clipPath id="clip4">
  <path d="M 106 353 L 123 353 L 123 402.828125 L 106 402.828125 Z M 106 353 "/>
</clipPath>
<clipPath id="clip5">
  <path d="M 75 351.121094 L 111 351.121094 L 111 402.828125 L 75 402.828125 Z M 75 351.121094 "/>
</clipPath>
<clipPath id="clip6">
  <path d="M 177 362 L 207 362 L 207 402.828125 L 177 402.828125 Z M 177 362 "/>
</clipPath>
<clipPath id="clip7">
  <path d="M 144 361 L 169 361 L 169 402.828125 L 144 402.828125 Z M 144 361 "/>
</clipPath>
<clipPath id="clip8">
  <path d="M 206 377 L 238.558594 377 L 238.558594 402.828125 L 206 402.828125 Z M 206 377 "/>
</clipPath>
<clipPath id="clip9">
  <path d="M 133 360 L 152 360 L 152 402.828125 L 133 402.828125 Z M 133 360 "/>
</clipPath>
<clipPath id="clip10">
  <path d="M 154 363 L 186 363 L 186 402.828125 L 154 402.828125 Z M 154 363 "/>
</clipPath>
<clipPath id="clip11">
  <path d="M 186 371 L 215 371 L 215 402.828125 L 186 402.828125 Z M 186 371 "/>
</clipPath>
<clipPath id="clip12">
  <path d="M 167 370 L 192 370 L 192 402.828125 L 167 402.828125 Z M 167 370 "/>
</clipPath>
<clipPath id="clip13">
  <path d="M 118 360 L 140 360 L 140 402.828125 L 118 402.828125 Z M 118 360 "/>
</clipPath>
<clipPath id="clip14">
  <path d="M 110 366 L 133 366 L 133 402.828125 L 110 402.828125 Z M 110 366 "/>
</clipPath>
<clipPath id="clip15">
  <path d="M 196 373 L 224 373 L 224 402.828125 L 196 402.828125 Z M 196 373 "/>
</clipPath>
<clipPath id="clip16">
  <path d="M 90 363 L 123 363 L 123 402.828125 L 90 402.828125 Z M 90 363 "/>
</clipPath>
<clipPath id="clip17">
  <path d="M 45 351.121094 L 97 351.121094 L 97 402.828125 L 45 402.828125 Z M 45 351.121094 "/>
</clipPath>
<clipPath id="clip18">
  <path d="M 50 371 L 80 371 L 80 402.828125 L 50 402.828125 Z M 50 371 "/>
</clipPath>
<clipPath id="clip19">
  <path d="M 32 366 L 62 366 L 62 402.828125 L 32 402.828125 Z M 32 366 "/>
</clipPath>
<clipPath id="clip20">
  <path d="M 15.980469 380 L 45 380 L 45 402.828125 L 15.980469 402.828125 Z M 15.980469 380 "/>
</clipPath>
<clipPath id="clip21">
  <path d="M 78 366 L 108 366 L 108 402.828125 L 78 402.828125 Z M 78 366 "/>
</clipPath>
<clipPath id="clip22">
  <path d="M 23 369 L 53 369 L 53 402.828125 L 23 402.828125 Z M 23 369 "/>
</clipPath>
<clipPath id="clip23">
  <path d="M 50 378 L 70 378 L 70 402.828125 L 50 402.828125 Z M 50 378 "/>
</clipPath>
<clipPath id="clip24">
  <path d="M 32 416 L 225 416 L 225 637 L 32 637 Z M 32 416 "/>
</clipPath>
<clipPath id="clip25">
  <path d="M 21 401.761719 L 237 401.761719 L 237 433 L 21 433 Z M 21 401.761719 "/>
</clipPath>
</defs>
<g id="surface1">
<g clip-path="url(#clip1)" clip-rule="nonzero">
<path style=" stroke:none;fill-rule:nonzero;fill:rgb(13.729858%,12.159729%,12.548828%);fill-opacity:1;" d="M 20.707031 242.328125 C 22.042969 250.078125 24.792969 265.265625 27.101562 277.921875 L 27.097656 277.914062 C 27.953125 298.199219 58.707031 315.28125 58.707031 315.28125 C 58.707031 315.28125 52.496094 310.378906 41.25 300.777344 C 34.246094 294.800781 28.148438 282.066406 27.132812 278.023438 C 26.074219 271.425781 34.160156 269.148438 41.726562 277.558594 C 53.027344 290.128906 105.355469 326.734375 104.773438 342.894531 C 104.144531 360.824219 109.480469 397.035156 109.480469 397.035156 L 62.191406 397.035156 L 66.4375 354.414062 C 66.4375 354.414062 24.527344 323.671875 16.882812 314.710938 C 9.238281 305.742188 5.445312 250.648438 4.785156 242.328125 C 4.113281 234.003906 18.152344 227.59375 20.707031 242.328125 "/>
</g>
<g clip-path="url(#clip2)" clip-rule="nonzero">
<path style=" stroke:none;fill-rule:nonzero;fill:rgb(13.729858%,12.159729%,12.548828%);fill-opacity:1;" d="M 233.886719 243.203125 C 232.550781 250.949219 229.800781 266.136719 227.492188 278.796875 L 227.496094 278.789062 C 226.640625 299.070312 195.886719 316.15625 195.886719 316.15625 C 195.886719 316.15625 202.097656 311.253906 213.347656 301.648438 C 220.347656 295.671875 226.449219 282.9375 227.464844 278.894531 C 228.519531 272.300781 220.433594 270.019531 212.867188 278.429688 C 201.566406 291.003906 149.238281 327.605469 149.816406 343.765625 C 150.449219 361.699219 144.304688 397.039062 144.304688 397.039062 L 190.800781 397.039062 L 188.152344 355.289062 C 188.152344 355.289062 230.070312 324.546875 237.714844 315.582031 C 245.355469 306.613281 249.148438 251.519531 249.8125 243.203125 C 250.476562 234.875 236.4375 228.464844 233.886719 243.203125 "/>
</g>
<g clip-path="url(#clip3)" clip-rule="nonzero">
<path style=" stroke:none;fill-rule:nonzero;fill:rgb(13.729858%,12.159729%,12.548828%);fill-opacity:1;" d="M 109.480469 397.035156 L 62.191406 397.035156 L 66.4375 354.414062 C 66.4375 354.414062 24.527344 323.671875 16.882812 314.710938 C 9.238281 305.742188 5.445312 250.648438 4.785156 242.328125 C 4.765625 242.136719 4.761719 241.941406 4.761719 241.753906 C 4.761719 237.289062 8.914062 233.519531 13.03125 233.519531 C 16.324219 233.519531 19.597656 235.933594 20.707031 242.328125 C 22.042969 250.078125 24.792969 265.265625 27.101562 277.921875 L 27.097656 277.914062 C 27.953125 298.199219 58.707031 315.28125 58.707031 315.28125 C 58.707031 315.28125 52.496094 310.378906 41.25 300.777344 C 34.246094 294.800781 28.148438 282.066406 27.132812 278.023438 C 27.070312 277.628906 27.039062 277.253906 27.039062 276.890625 C 27.035156 273.953125 29.054688 272.113281 31.984375 272.113281 C 34.730469 272.113281 38.285156 273.730469 41.726562 277.558594 C 52.964844 290.058594 104.769531 326.320312 104.78125 342.621094 C 104.78125 342.710938 104.78125 342.800781 104.773438 342.894531 C 104.742188 343.898438 104.722656 344.964844 104.722656 346.078125 C 104.726562 364.777344 109.480469 397.035156 109.480469 397.035156 "/>
</g>
<g clip-path="url(#clip4)" clip-rule="nonzero">
<path style=" stroke:none;fill-rule:nonzero;fill:rgb(52.549744%,68.629456%,10.5896%);fill-opacity:1;" d="M 122.453125 402.527344 L 108.839844 402.527344 C 108.808594 402.464844 108.777344 402.40625 108.742188 402.328125 C 108.707031 402.285156 108.707031 402.222656 108.675781 402.179688 C 107.6875 398.996094 106.796875 396.386719 106.402344 393.054688 L 106.402344 392.933594 C 106.304688 392.078125 106.269531 391.164062 106.269531 390.1875 C 106.269531 390.113281 106.269531 390.050781 106.238281 389.992188 C 106.238281 388.851562 106.269531 387.621094 106.402344 386.253906 C 106.5 385.023438 106.597656 383.734375 106.765625 382.429688 C 107.0625 380.328125 107.492188 378.152344 108.082031 375.914062 C 108.84375 373.015625 109.960938 370.027344 111.511719 367.058594 C 111.511719 366.984375 111.546875 366.90625 111.613281 366.847656 C 113.953125 362.300781 117.347656 357.78125 122.191406 353.578125 C 120.972656 356.101562 120.015625 358.5625 119.289062 360.933594 C 119.257812 360.976562 119.226562 361.039062 119.226562 361.085938 C 118.039062 364.898438 117.347656 368.484375 117.019531 371.710938 C 116.917969 372.65625 116.851562 373.589844 116.820312 374.476562 C 116.523438 380.433594 117.316406 384.847656 117.710938 386.722656 C 117.710938 386.722656 117.710938 386.722656 117.710938 386.738281 C 117.773438 387.097656 117.84375 387.367188 117.875 387.535156 C 115.929688 390.910156 117.8125 395.460938 119.851562 398.804688 C 120.613281 400.054688 121.367188 401.132812 121.996094 401.941406 L 121.996094 401.957031 C 122.191406 402.164062 122.324219 402.359375 122.453125 402.527344 Z M 122.453125 402.527344 "/>
</g>
<g clip-path="url(#clip5)" clip-rule="nonzero">
<path style=" stroke:none;fill-rule:nonzero;fill:rgb(52.549744%,68.629456%,10.5896%);fill-opacity:1;" d="M 110.292969 400.425781 C 110.160156 401.144531 109.601562 401.789062 108.742188 402.328125 C 108.644531 402.402344 108.546875 402.464844 108.414062 402.527344 L 92.785156 402.527344 C 91.003906 401.761719 89.949219 400.632812 90.179688 399.390625 C 91.136719 396.222656 91.699219 393.160156 91.929688 390.203125 C 92.09375 388.34375 92.125 386.523438 92.058594 384.769531 C 91.929688 381.707031 91.46875 378.78125 90.773438 376.050781 C 90.773438 376.050781 90.773438 376.050781 90.773438 376.035156 C 87.511719 362.75 78.875 353.546875 75.679688 351.328125 C 78.511719 352.558594 86.492188 357.976562 94.105469 365.617188 C 98.949219 370.480469 103.664062 376.257812 106.761719 382.429688 C 109.730469 388.207031 111.3125 394.34375 110.292969 400.425781 Z M 110.292969 400.425781 "/>
</g>
<g clip-path="url(#clip6)" clip-rule="nonzero">
<path style=" stroke:none;fill-rule:nonzero;fill:rgb(59.21936%,75.689697%,11.759949%);fill-opacity:1;" d="M 206.445312 362.132812 C 204.269531 364.703125 199.984375 368.964844 196.324219 385.113281 C 196.324219 385.128906 196.324219 385.144531 196.324219 385.144531 C 195.238281 389.839844 194.214844 395.558594 193.359375 402.527344 L 177.109375 402.527344 C 177.605469 399.132812 178.589844 395.863281 179.945312 392.753906 C 179.945312 392.753906 179.945312 392.738281 179.945312 392.726562 C 186.699219 376.90625 202.324219 364.972656 206.445312 362.132812 Z M 206.445312 362.132812 "/>
</g>
<g clip-path="url(#clip7)" clip-rule="nonzero">
<path style=" stroke:none;fill-rule:nonzero;fill:rgb(59.21936%,75.689697%,11.759949%);fill-opacity:1;" d="M 168.734375 361.847656 C 166.890625 364.460938 163.164062 368.796875 161.480469 384.816406 C 160.988281 389.589844 160.65625 395.410156 160.625 402.527344 L 144.46875 402.527344 C 144.601562 398.011719 145.65625 393.671875 147.273438 389.617188 C 152.878906 375.355469 165.207031 364.582031 168.734375 361.847656 Z M 168.734375 361.847656 "/>
</g>
<g clip-path="url(#clip8)" clip-rule="nonzero">
<path style=" stroke:none;fill-rule:nonzero;fill:rgb(52.549744%,68.629456%,10.5896%);fill-opacity:1;" d="M 238.617188 377.007812 C 235.355469 378.585938 221.707031 387.214844 218.476562 401.773438 C 218.445312 402.042969 218.28125 402.296875 218.015625 402.527344 L 207.566406 402.527344 C 207.070312 402.121094 206.839844 401.609375 207.007812 401.085938 C 207.53125 399.464844 208.390625 397.90625 209.445312 396.402344 C 216.832031 385.652344 235.222656 378.015625 238.617188 377.007812 Z M 238.617188 377.007812 "/>
</g>
<g clip-path="url(#clip9)" clip-rule="nonzero">
<path style=" stroke:none;fill-rule:nonzero;fill:rgb(52.549744%,68.629456%,10.5896%);fill-opacity:1;" d="M 151.527344 402.433594 L 150.34375 402.527344 L 135.210938 402.527344 C 132.476562 394.238281 133.039062 386.328125 134.882812 379.621094 C 137.519531 369.984375 142.730469 362.839844 144.605469 360.601562 C 143.621094 363.636719 141.082031 368.933594 147.277344 389.617188 C 148.363281 393.355469 149.78125 397.601562 151.527344 402.433594 Z M 151.527344 402.433594 "/>
</g>
<g clip-path="url(#clip10)" clip-rule="nonzero">
<path style=" stroke:none;fill-rule:nonzero;fill:rgb(52.549744%,68.629456%,10.5896%);fill-opacity:1;" d="M 171.570312 386.960938 C 170.746094 391.011719 170.382812 395.605469 170.746094 400.800781 C 170.808594 401.429688 170.285156 402.046875 169.425781 402.527344 L 155.414062 402.527344 C 154.855469 402.179688 154.558594 401.761719 154.59375 401.3125 C 154.824219 395.832031 157.625 390.097656 161.480469 384.816406 C 169.03125 374.425781 180.667969 365.707031 185.25 363.636719 C 182.382812 365.886719 174.339844 373.253906 171.570312 386.960938 Z M 171.570312 386.960938 "/>
</g>
<g clip-path="url(#clip11)" clip-rule="nonzero">
<path style=" stroke:none;fill-rule:nonzero;fill:rgb(52.549744%,68.629456%,10.5896%);fill-opacity:1;" d="M 214.585938 371.679688 C 211.917969 373.558594 203.90625 379.980469 200.644531 392.394531 C 199.917969 395.140625 199.425781 398.1875 199.257812 401.535156 C 199.257812 401.878906 199.027344 402.226562 198.632812 402.527344 L 186.535156 402.527344 C 186.203125 402.253906 186.039062 401.953125 186.105469 401.640625 C 187.027344 396.027344 191.277344 390.171875 196.324219 385.144531 C 196.324219 385.144531 196.324219 385.128906 196.324219 385.113281 C 203.082031 378.359375 211.191406 373.0625 214.585938 371.679688 Z M 214.585938 371.679688 "/>
</g>
<g clip-path="url(#clip12)" clip-rule="nonzero">
<path style=" stroke:none;fill-rule:nonzero;fill:rgb(59.21936%,75.689697%,11.759949%);fill-opacity:1;" d="M 180.667969 400.800781 C 180.863281 401.460938 180.4375 402.058594 179.613281 402.527344 L 168.140625 402.527344 C 167.582031 402.148438 167.253906 401.714844 167.183594 401.21875 C 166.625 396.144531 168.570312 391.28125 171.570312 386.960938 C 177.765625 378.042969 188.445312 371.484375 191.050781 370.3125 C 188.578125 372.113281 180.46875 380.25 179.941406 392.722656 C 179.941406 392.738281 179.941406 392.753906 179.941406 392.753906 C 179.84375 395.277344 180.039062 397.964844 180.667969 400.800781 Z M 180.667969 400.800781 "/>
</g>
<g clip-path="url(#clip13)" clip-rule="nonzero">
<path style=" stroke:none;fill-rule:nonzero;fill:rgb(59.21936%,75.689697%,11.759949%);fill-opacity:1;" d="M 138.574219 401.625 C 138.539062 401.957031 138.34375 402.253906 137.980469 402.527344 L 126.835938 402.527344 C 128.054688 400.46875 131.648438 393.699219 128.289062 389.46875 C 128.320312 389.019531 128.386719 387.636719 128.222656 385.550781 C 127.828125 380.492188 126.148438 371.246094 119.222656 361.085938 C 119.125 360.949219 119.058594 360.828125 118.960938 360.695312 C 119.058594 360.769531 119.191406 360.859375 119.289062 360.933594 C 127.296875 366.671875 132.015625 373.347656 134.878906 379.621094 C 136.230469 382.535156 137.1875 385.371094 137.878906 387.984375 C 139.59375 394.148438 139.066406 397.304688 138.574219 401.625 Z M 138.574219 401.625 "/>
</g>
<g clip-path="url(#clip14)" clip-rule="nonzero">
<path style=" stroke:none;fill-rule:nonzero;fill:rgb(59.21936%,75.689697%,11.759949%);fill-opacity:1;" d="M 132.738281 401.355469 C 132.640625 401.792969 132.34375 402.195312 131.847656 402.527344 L 120.675781 402.527344 C 119.71875 402.015625 119.191406 401.324219 119.289062 400.648438 C 119.484375 400.019531 119.683594 399.402344 119.851562 398.800781 C 120.410156 396.730469 120.738281 394.75 120.90625 392.859375 C 121.597656 385.261719 119.390625 379.046875 116.820312 374.46875 C 114.90625 371.03125 112.796875 368.527344 111.511719 367.054688 C 111.148438 366.695312 110.886719 366.394531 110.6875 366.15625 C 110.917969 366.320312 111.25 366.542969 111.613281 366.847656 C 112.898438 367.820312 114.84375 369.519531 117.019531 371.710938 C 120.644531 375.3125 124.996094 380.25 128.226562 385.546875 C 131.386719 390.773438 133.496094 396.355469 132.738281 401.355469 Z M 132.738281 401.355469 "/>
</g>
<g clip-path="url(#clip15)" clip-rule="nonzero">
<path style=" stroke:none;fill-rule:nonzero;fill:rgb(59.21936%,75.689697%,11.759949%);fill-opacity:1;" d="M 223.390625 373.316406 C 220.617188 375.265625 211.820312 382.367188 209.445312 396.402344 C 209.148438 398.054688 208.949219 399.792969 208.851562 401.640625 C 208.851562 401.953125 208.65625 402.253906 208.324219 402.527344 L 196.6875 402.527344 C 196.421875 402.285156 196.292969 402.015625 196.355469 401.730469 C 196.882812 398.621094 198.464844 395.441406 200.640625 392.390625 C 207.203125 383.148438 219.171875 375.011719 223.390625 373.316406 Z M 223.390625 373.316406 "/>
</g>
<g clip-path="url(#clip16)" clip-rule="nonzero">
<path style=" stroke:none;fill-rule:nonzero;fill:rgb(59.21936%,75.689697%,11.759949%);fill-opacity:1;" d="M 122.191406 401.417969 C 122.15625 401.597656 122.09375 401.777344 121.992188 401.941406 L 121.992188 401.957031 C 121.894531 402.152344 121.730469 402.34375 121.5 402.527344 L 106.761719 402.527344 C 106.664062 402.5 106.597656 402.46875 106.597656 402.421875 C 105.804688 401.925781 105.378906 401.3125 105.445312 400.664062 C 105.84375 399.058594 106.105469 397.484375 106.238281 395.953125 C 106.269531 395.9375 106.238281 395.9375 106.238281 395.921875 C 106.367188 394.945312 106.402344 394 106.402344 393.054688 L 106.402344 392.9375 C 106.402344 392.003906 106.335938 391.089844 106.269531 390.191406 C 106.269531 390.117188 106.269531 390.054688 106.238281 389.992188 C 104.851562 375.988281 94.171875 365.976562 90.710938 363.890625 C 91.46875 364.175781 92.621094 364.761719 94.105469 365.617188 C 97.695312 367.703125 103.035156 371.335938 108.082031 375.914062 C 111.671875 379.128906 115.101562 382.804688 117.707031 386.722656 C 117.707031 386.722656 117.707031 386.722656 117.707031 386.738281 C 119.023438 388.734375 120.144531 390.777344 120.902344 392.863281 C 121.992188 395.679688 122.488281 398.5625 122.191406 401.417969 Z M 122.191406 401.417969 "/>
</g>
<g clip-path="url(#clip17)" clip-rule="nonzero">
<path style=" stroke:none;fill-rule:nonzero;fill:rgb(59.21936%,75.689697%,11.759949%);fill-opacity:1;" d="M 96.28125 399.6875 C 96.445312 400.648438 95.851562 401.550781 94.667969 402.238281 C 94.5 402.34375 94.335938 402.433594 94.140625 402.527344 L 79.042969 402.527344 L 79.042969 402.511719 C 77.695312 401.894531 76.800781 401.070312 76.605469 400.226562 C 76.472656 397.644531 76.109375 395.15625 75.617188 392.769531 C 70.636719 369.175781 49.800781 355.125 45.152344 351.703125 C 50.824219 354.28125 80.257812 372.328125 91.929688 390.203125 C 92.753906 391.417969 93.480469 392.648438 94.074219 393.867188 C 94.074219 393.867188 94.074219 393.867188 94.074219 393.882812 C 94.074219 393.882812 94.105469 393.898438 94.074219 393.910156 C 94.105469 393.910156 94.105469 393.925781 94.074219 393.957031 C 95.09375 395.878906 95.851562 397.8125 96.28125 399.6875 Z M 96.28125 399.6875 "/>
</g>
<g clip-path="url(#clip18)" clip-rule="nonzero">
<path style=" stroke:none;fill-rule:nonzero;fill:rgb(52.549744%,68.629456%,10.5896%);fill-opacity:1;" d="M 79.4375 401.640625 C 79.5 401.957031 79.371094 402.242188 79.042969 402.511719 L 79.042969 402.527344 L 66.910156 402.527344 C 66.515625 402.230469 66.285156 401.882812 66.285156 401.539062 C 66.121094 397.847656 65.527344 394.515625 64.667969 391.554688 C 61.273438 379.695312 53.558594 373.515625 50.957031 371.683594 C 55.535156 373.542969 68.855469 382.625 75.609375 392.773438 C 77.558594 395.679688 78.941406 398.699219 79.4375 401.640625 Z M 79.4375 401.640625 "/>
</g>
<g clip-path="url(#clip19)" clip-rule="nonzero">
<path style=" stroke:none;fill-rule:nonzero;fill:rgb(52.549744%,68.629456%,10.5896%);fill-opacity:1;" d="M 61.207031 401.144531 C 61.207031 401.613281 60.945312 402.03125 60.484375 402.394531 L 60.484375 402.410156 C 60.417969 402.453125 60.382812 402.484375 60.320312 402.527344 L 48.945312 402.527344 C 48.1875 402.078125 47.695312 401.523438 47.695312 400.964844 C 48.386719 396.269531 47.992188 391.988281 47.003906 388.179688 C 43.972656 376.363281 35.070312 368.964844 32.796875 366.910156 C 36.554688 368.964844 56.496094 383.855469 60.519531 397.109375 C 60.519531 397.125 60.519531 397.125 60.519531 397.125 C 60.945312 398.488281 61.175781 399.824219 61.207031 401.144531 Z M 61.207031 401.144531 "/>
</g>
<g clip-path="url(#clip20)" clip-rule="nonzero">
<path style=" stroke:none;fill-rule:nonzero;fill:rgb(59.21936%,75.689697%,11.759949%);fill-opacity:1;" d="M 43.804688 402.527344 L 35.199219 402.527344 C 35.101562 402.417969 35.035156 402.328125 35.003906 402.226562 C 31.609375 389.363281 18.6875 382.203125 15.984375 380.582031 C 18.589844 381.558594 31.410156 388.011719 38.992188 395.171875 C 41.234375 397.289062 43.046875 399.464844 43.96875 401.582031 C 44.097656 401.910156 44.035156 402.242188 43.804688 402.527344 Z M 43.804688 402.527344 "/>
</g>
<g clip-path="url(#clip21)" clip-rule="nonzero">
<path style=" stroke:none;fill-rule:nonzero;fill:rgb(59.21936%,75.689697%,11.759949%);fill-opacity:1;" d="M 107.355469 401.144531 C 107.355469 401.613281 107.058594 402.046875 106.597656 402.421875 C 106.5625 402.453125 106.5 402.496094 106.464844 402.527344 L 95.09375 402.527344 C 94.894531 402.4375 94.761719 402.347656 94.664062 402.242188 C 94.136719 401.851562 93.839844 401.417969 93.839844 400.964844 C 94.203125 398.503906 94.269531 396.164062 94.070312 393.957031 C 94.105469 393.925781 94.105469 393.910156 94.070312 393.910156 C 94.105469 393.894531 94.070312 393.882812 94.070312 393.882812 C 94.070312 393.867188 94.070312 393.867188 94.070312 393.867188 C 93.839844 390.550781 93.113281 387.515625 92.058594 384.769531 C 88.367188 374.9375 80.953125 368.753906 78.941406 366.910156 C 80.621094 367.824219 85.5 371.292969 90.773438 376.035156 C 90.773438 376.050781 90.773438 376.050781 90.773438 376.050781 C 96.972656 381.617188 103.664062 388.945312 106.234375 395.921875 C 106.234375 395.9375 106.269531 395.9375 106.234375 395.953125 C 106.894531 397.707031 107.292969 399.464844 107.355469 401.144531 Z M 107.355469 401.144531 "/>
</g>
<g clip-path="url(#clip22)" clip-rule="nonzero">
<path style=" stroke:none;fill-rule:nonzero;fill:rgb(59.21936%,75.689697%,11.759949%);fill-opacity:1;" d="M 52.472656 401.128906 C 52.472656 401.65625 52.140625 402.136719 51.582031 402.527344 L 40.109375 402.527344 C 39.382812 402.105469 38.957031 401.582031 38.957031 400.996094 C 39.152344 398.984375 39.152344 397.035156 38.988281 395.171875 C 37.605469 381.136719 26.363281 371.304688 23.101562 369.429688 C 26.332031 370.597656 39.417969 378.359375 47 388.175781 C 50.132812 392.257812 52.339844 396.6875 52.472656 401.128906 Z M 52.472656 401.128906 "/>
</g>
<g clip-path="url(#clip23)" clip-rule="nonzero">
<path style=" stroke:none;fill-rule:nonzero;fill:rgb(59.21936%,75.689697%,11.759949%);fill-opacity:1;" d="M 69.316406 401.984375 C 69.316406 402.179688 69.21875 402.359375 69.050781 402.527344 L 60.613281 402.527344 C 60.546875 402.496094 60.515625 402.453125 60.480469 402.40625 L 60.480469 402.390625 C 60.316406 402.210938 60.214844 402 60.214844 401.804688 C 60.480469 400.171875 60.578125 398.609375 60.515625 397.121094 C 60.515625 397.121094 60.515625 397.121094 60.515625 397.105469 C 60.085938 386.886719 52.472656 380.429688 50.789062 378.824219 C 52.570312 379.828125 59.789062 385.261719 64.667969 391.554688 C 67.339844 394.976562 69.28125 398.636719 69.316406 401.984375 Z M 69.316406 401.984375 "/>
</g>
<g clip-path="url(#clip24)" clip-rule="nonzero">
<path style=" stroke:none;fill-rule:nonzero;fill:rgb(80.778503%,51.368713%,27.059937%);fill-opacity:1;" d="M 221.605469 416.351562 L 35.597656 416.351562 C 35.597656 416.351562 17.996094 581.792969 72.46875 637.160156 L 184.734375 637.160156 C 239.542969 581.792969 221.605469 416.351562 221.605469 416.351562 Z M 221.605469 416.351562 "/>
</g>
<g clip-path="url(#clip25)" clip-rule="nonzero">
<path style=" stroke:none;fill-rule:nonzero;fill:rgb(64.709473%,39.219666%,20.388794%);fill-opacity:1;" d="M 227.914062 432.265625 L 29.289062 432.265625 C 24.96875 432.265625 21.316406 428.617188 21.316406 424.308594 L 21.316406 409.71875 C 21.316406 405.410156 24.96875 401.761719 29.289062 401.761719 L 228.246094 401.761719 C 232.566406 401.761719 236.21875 405.410156 236.21875 409.71875 L 236.21875 424.308594 C 235.886719 428.949219 232.234375 432.265625 227.914062 432.265625 Z M 227.914062 432.265625 "/>
</g>
<path style=" stroke:none;fill-rule:nonzero;fill:rgb(37.649536%,24.708557%,16.079712%);fill-opacity:1;" d="M 34.269531 432.265625 L 33.605469 444.53125 L 223.597656 444.53125 L 222.933594 432.265625 Z M 34.269531 432.265625 "/>
</g>
</svg>
