<?xml version="1.0" encoding="UTF-8"?>
<svg xmlns="http://www.w3.org/2000/svg" xmlns:xlink="http://www.w3.org/1999/xlink" width="255pt" height="202.499994pt" viewBox="0 0 255 202.499994" version="1.2">
<defs>
<clipPath id="clip1">
  <path d="M 1.167969 0 L 109 0 L 109 168.179688 L 1.167969 168.179688 Z M 1.167969 0 "/>
</clipPath>
<clipPath id="clip2">
  <path d="M 144 1 L 252.882812 1 L 252.882812 168.179688 L 144 168.179688 Z M 144 1 "/>
</clipPath>
<clipPath id="clip3">
  <path d="M 1.167969 0 L 109 0 L 109 168.179688 L 1.167969 168.179688 Z M 1.167969 0 "/>
</clipPath>
<clipPath id="clip4">
  <path d="M 106 123 L 123 123 L 123 174.566406 L 106 174.566406 Z M 106 123 "/>
</clipPath>
<clipPath id="clip5">
  <path d="M 74 121.125 L 111 121.125 L 111 174.566406 L 74 174.566406 Z M 74 121.125 "/>
</clipPath>
<clipPath id="clip6">
  <path d="M 178 132 L 210 132 L 210 174.566406 L 178 174.566406 Z M 178 132 "/>
</clipPath>
<clipPath id="clip7">
  <path d="M 145 132 L 171 132 L 171 174.566406 L 145 174.566406 Z M 145 132 "/>
</clipPath>
<clipPath id="clip8">
  <path d="M 209 147 L 242.117188 147 L 242.117188 174.566406 L 209 174.566406 Z M 209 147 "/>
</clipPath>
<clipPath id="clip9">
  <path d="M 133 130 L 153 130 L 153 174.566406 L 133 174.566406 Z M 133 130 "/>
</clipPath>
<clipPath id="clip10">
  <path d="M 155 134 L 188 134 L 188 174.566406 L 155 174.566406 Z M 155 134 "/>
</clipPath>
<clipPath id="clip11">
  <path d="M 188 142 L 218 142 L 218 174.566406 L 188 174.566406 Z M 188 142 "/>
</clipPath>
<clipPath id="clip12">
  <path d="M 168 140 L 194 140 L 194 174.566406 L 168 174.566406 Z M 168 140 "/>
</clipPath>
<clipPath id="clip13">
  <path d="M 119 131 L 140 131 L 140 174.566406 L 119 174.566406 Z M 119 131 "/>
</clipPath>
<clipPath id="clip14">
  <path d="M 110 136 L 134 136 L 134 174.566406 L 110 174.566406 Z M 110 136 "/>
</clipPath>
<clipPath id="clip15">
  <path d="M 198 144 L 227 144 L 227 174.566406 L 198 174.566406 Z M 198 144 "/>
</clipPath>
<clipPath id="clip16">
  <path d="M 90 134 L 123 134 L 123 174.566406 L 90 174.566406 Z M 90 134 "/>
</clipPath>
<clipPath id="clip17">
  <path d="M 43 121.125 L 96 121.125 L 96 174.566406 L 43 174.566406 Z M 43 121.125 "/>
</clipPath>
<clipPath id="clip18">
  <path d="M 49 142 L 79 142 L 79 174.566406 L 49 174.566406 Z M 49 142 "/>
</clipPath>
<clipPath id="clip19">
  <path d="M 30 137 L 60 137 L 60 174.566406 L 30 174.566406 Z M 30 137 "/>
</clipPath>
<clipPath id="clip20">
  <path d="M 13.3125 151 L 43 151 L 43 174.566406 L 13.3125 174.566406 Z M 13.3125 151 "/>
</clipPath>
<clipPath id="clip21">
  <path d="M 78 137 L 108 137 L 108 174.566406 L 78 174.566406 Z M 78 137 "/>
</clipPath>
<clipPath id="clip22">
  <path d="M 20 140 L 51 140 L 51 174.566406 L 20 174.566406 Z M 20 140 "/>
</clipPath>
<clipPath id="clip23">
  <path d="M 49 149 L 69 149 L 69 174.566406 L 49 174.566406 Z M 49 149 "/>
</clipPath>
<clipPath id="clip24">
  <path d="M 30 187 L 226 187 L 226 202 L 30 202 Z M 30 187 "/>
</clipPath>
<clipPath id="clip25">
  <path d="M 18 172.976562 L 238 172.976562 L 238 202 L 18 202 Z M 18 172.976562 "/>
</clipPath>
</defs>
<g id="surface1">
<g clip-path="url(#clip1)" clip-rule="nonzero">
<path style=" stroke:none;fill-rule:nonzero;fill:rgb(13.729858%,12.159729%,12.548828%);fill-opacity:1;" d="M 18.117188 9.777344 C 19.484375 17.738281 22.292969 33.335938 24.652344 46.335938 L 24.648438 46.332031 C 25.519531 67.164062 56.941406 84.710938 56.941406 84.710938 C 56.941406 84.710938 50.597656 79.679688 39.105469 69.8125 C 31.949219 63.675781 25.71875 50.59375 24.683594 46.441406 C 23.601562 39.667969 31.863281 37.324219 39.59375 45.964844 C 51.140625 58.878906 104.605469 96.476562 104.011719 113.074219 C 103.367188 131.496094 108.820312 168.691406 108.820312 168.691406 L 60.503906 168.691406 L 64.84375 124.910156 C 64.84375 124.910156 22.019531 93.332031 14.207031 84.125 C 6.398438 74.914062 2.523438 18.324219 1.847656 9.777344 C 1.164062 1.226562 15.507812 -5.359375 18.117188 9.777344 "/>
</g>
<g clip-path="url(#clip2)" clip-rule="nonzero">
<path style=" stroke:none;fill-rule:nonzero;fill:rgb(13.729858%,12.159729%,12.548828%);fill-opacity:1;" d="M 235.933594 10.675781 C 234.566406 18.632812 231.757812 34.234375 229.398438 47.234375 L 229.402344 47.226562 C 228.527344 68.0625 197.105469 85.609375 197.105469 85.609375 C 197.105469 85.609375 203.453125 80.574219 214.945312 70.710938 C 222.097656 64.570312 228.332031 51.492188 229.371094 47.339844 C 230.445312 40.5625 222.1875 38.21875 214.457031 46.859375 C 202.910156 59.773438 149.445312 97.375 150.035156 113.972656 C 150.679688 132.390625 144.402344 168.695312 144.402344 168.695312 L 191.90625 168.695312 L 189.203125 125.808594 C 189.203125 125.808594 232.03125 94.230469 239.84375 85.023438 C 247.648438 75.808594 251.523438 19.21875 252.203125 10.675781 C 252.882812 2.121094 238.539062 -4.464844 235.933594 10.675781 "/>
</g>
<g clip-path="url(#clip3)" clip-rule="nonzero">
<path style=" stroke:none;fill-rule:nonzero;fill:rgb(13.729858%,12.159729%,12.548828%);fill-opacity:1;" d="M 108.820312 168.691406 L 60.503906 168.691406 L 64.84375 124.910156 C 64.84375 124.910156 22.019531 93.332031 14.207031 84.125 C 6.398438 74.914062 2.523438 18.324219 1.847656 9.777344 C 1.832031 9.578125 1.824219 9.382812 1.824219 9.1875 C 1.824219 4.601562 6.066406 0.726562 10.273438 0.726562 C 13.640625 0.726562 16.984375 3.207031 18.117188 9.777344 C 19.484375 17.738281 22.292969 33.335938 24.652344 46.335938 L 24.648438 46.332031 C 25.519531 67.164062 56.941406 84.710938 56.941406 84.710938 C 56.941406 84.710938 50.597656 79.679688 39.105469 69.8125 C 31.949219 63.675781 25.71875 50.59375 24.683594 46.441406 C 24.617188 46.039062 24.585938 45.652344 24.585938 45.277344 C 24.585938 42.261719 26.644531 40.375 29.640625 40.375 C 32.445312 40.375 36.074219 42.03125 39.59375 45.964844 C 51.074219 58.804688 104.007812 96.054688 104.015625 112.792969 C 104.015625 112.890625 104.015625 112.980469 104.011719 113.074219 C 103.976562 114.109375 103.960938 115.203125 103.960938 116.347656 C 103.960938 135.554688 108.820312 168.691406 108.820312 168.691406 "/>
</g>
<g clip-path="url(#clip4)" clip-rule="nonzero">
<path style=" stroke:none;fill-rule:nonzero;fill:rgb(52.549744%,68.629456%,10.5896%);fill-opacity:1;" d="M 122.765625 174.253906 L 108.769531 174.253906 C 108.738281 174.191406 108.703125 174.132812 108.667969 174.054688 C 108.636719 174.007812 108.636719 173.945312 108.601562 173.898438 C 107.585938 170.609375 106.671875 167.910156 106.265625 164.464844 L 106.265625 164.339844 C 106.164062 163.457031 106.128906 162.511719 106.128906 161.503906 C 106.128906 161.425781 106.128906 161.363281 106.09375 161.300781 C 106.09375 160.121094 106.128906 158.847656 106.265625 157.4375 C 106.367188 156.164062 106.46875 154.832031 106.636719 153.480469 C 106.945312 151.308594 107.382812 149.0625 107.992188 146.746094 C 108.773438 143.75 109.925781 140.667969 111.515625 137.59375 C 111.515625 137.515625 111.550781 137.4375 111.621094 137.378906 C 114.027344 132.675781 117.515625 128.007812 122.496094 123.664062 C 121.242188 126.269531 120.257812 128.8125 119.515625 131.265625 C 119.480469 131.3125 119.445312 131.375 119.445312 131.417969 C 118.226562 135.363281 117.515625 139.070312 117.175781 142.40625 C 117.074219 143.382812 117.007812 144.34375 116.976562 145.261719 C 116.667969 151.421875 117.484375 155.980469 117.886719 157.921875 C 117.886719 157.921875 117.886719 157.921875 117.886719 157.9375 C 117.957031 158.308594 118.023438 158.589844 118.058594 158.761719 C 116.058594 162.25 117.992188 166.953125 120.089844 170.410156 C 120.871094 171.699219 121.648438 172.816406 122.292969 173.652344 L 122.292969 173.667969 C 122.496094 173.882812 122.628906 174.085938 122.765625 174.253906 Z M 122.765625 174.253906 "/>
</g>
<g clip-path="url(#clip5)" clip-rule="nonzero">
<path style=" stroke:none;fill-rule:nonzero;fill:rgb(52.549744%,68.629456%,10.5896%);fill-opacity:1;" d="M 110.261719 172.082031 C 110.125 172.828125 109.550781 173.496094 108.667969 174.054688 C 108.570312 174.128906 108.46875 174.191406 108.332031 174.253906 L 92.265625 174.253906 C 90.4375 173.464844 89.351562 172.300781 89.589844 171.011719 C 90.574219 167.738281 91.148438 164.574219 91.386719 161.519531 C 91.554688 159.59375 91.589844 157.714844 91.519531 155.902344 C 91.386719 152.738281 90.910156 149.710938 90.199219 146.890625 C 90.199219 146.890625 90.199219 146.890625 90.199219 146.871094 C 86.847656 133.140625 77.96875 123.628906 74.679688 121.335938 C 77.59375 122.605469 85.796875 128.207031 93.621094 136.105469 C 98.605469 141.132812 103.449219 147.105469 106.636719 153.480469 C 109.683594 159.453125 111.3125 165.800781 110.261719 172.082031 Z M 110.261719 172.082031 "/>
</g>
<g clip-path="url(#clip6)" clip-rule="nonzero">
<path style=" stroke:none;fill-rule:nonzero;fill:rgb(59.21936%,75.689697%,11.759949%);fill-opacity:1;" d="M 209.105469 132.507812 C 206.871094 135.160156 202.464844 139.566406 198.703125 156.257812 C 198.703125 156.273438 198.703125 156.289062 198.703125 156.289062 C 197.585938 161.144531 196.535156 167.054688 195.652344 174.253906 L 178.949219 174.253906 C 179.457031 170.75 180.472656 167.367188 181.863281 164.15625 C 181.863281 164.15625 181.863281 164.140625 181.863281 164.125 C 188.808594 147.773438 204.871094 135.4375 209.105469 132.507812 Z M 209.105469 132.507812 "/>
</g>
<g clip-path="url(#clip7)" clip-rule="nonzero">
<path style=" stroke:none;fill-rule:nonzero;fill:rgb(59.21936%,75.689697%,11.759949%);fill-opacity:1;" d="M 170.339844 132.210938 C 168.445312 134.910156 164.613281 139.394531 162.882812 155.949219 C 162.375 160.882812 162.039062 166.902344 162.003906 174.257812 L 145.398438 174.257812 C 145.535156 169.589844 146.617188 165.105469 148.277344 160.914062 C 154.042969 146.171875 166.714844 135.035156 170.339844 132.210938 Z M 170.339844 132.210938 "/>
</g>
<g clip-path="url(#clip8)" clip-rule="nonzero">
<path style=" stroke:none;fill-rule:nonzero;fill:rgb(52.549744%,68.629456%,10.5896%);fill-opacity:1;" d="M 242.179688 147.878906 C 238.824219 149.511719 224.792969 158.429688 221.476562 173.480469 C 221.441406 173.757812 221.273438 174.019531 221 174.253906 L 210.257812 174.253906 C 209.75 173.835938 209.511719 173.308594 209.683594 172.765625 C 210.222656 171.089844 211.105469 169.480469 212.191406 167.925781 C 219.78125 156.816406 238.6875 148.917969 242.179688 147.878906 Z M 242.179688 147.878906 "/>
</g>
<g clip-path="url(#clip9)" clip-rule="nonzero">
<path style=" stroke:none;fill-rule:nonzero;fill:rgb(52.549744%,68.629456%,10.5896%);fill-opacity:1;" d="M 152.652344 174.164062 L 151.433594 174.253906 L 135.878906 174.253906 C 133.066406 165.691406 133.644531 157.515625 135.542969 150.578125 C 138.253906 140.621094 143.605469 133.234375 145.539062 130.921875 C 144.523438 134.058594 141.914062 139.535156 148.285156 160.910156 C 149.402344 164.777344 150.855469 169.167969 152.652344 174.164062 Z M 152.652344 174.164062 "/>
</g>
<g clip-path="url(#clip10)" clip-rule="nonzero">
<path style=" stroke:none;fill-rule:nonzero;fill:rgb(52.549744%,68.629456%,10.5896%);fill-opacity:1;" d="M 173.253906 158.167969 C 172.40625 162.355469 172.035156 167.105469 172.40625 172.472656 C 172.472656 173.121094 171.933594 173.761719 171.050781 174.253906 L 156.648438 174.253906 C 156.074219 173.898438 155.765625 173.464844 155.800781 173 C 156.039062 167.335938 158.921875 161.410156 162.882812 155.949219 C 170.644531 145.210938 182.605469 136.199219 187.316406 134.058594 C 184.371094 136.386719 176.101562 144 173.253906 158.167969 Z M 173.253906 158.167969 "/>
</g>
<g clip-path="url(#clip11)" clip-rule="nonzero">
<path style=" stroke:none;fill-rule:nonzero;fill:rgb(52.549744%,68.629456%,10.5896%);fill-opacity:1;" d="M 217.476562 142.371094 C 214.730469 144.3125 206.496094 150.953125 203.140625 163.785156 C 202.394531 166.625 201.890625 169.773438 201.71875 173.230469 C 201.71875 173.585938 201.480469 173.945312 201.074219 174.253906 L 188.636719 174.253906 C 188.300781 173.976562 188.128906 173.664062 188.195312 173.339844 C 189.144531 167.535156 193.515625 161.484375 198.699219 156.289062 C 198.699219 156.289062 198.699219 156.273438 198.699219 156.257812 C 205.648438 149.277344 213.984375 143.800781 217.476562 142.371094 Z M 217.476562 142.371094 "/>
</g>
<g clip-path="url(#clip12)" clip-rule="nonzero">
<path style=" stroke:none;fill-rule:nonzero;fill:rgb(59.21936%,75.689697%,11.759949%);fill-opacity:1;" d="M 182.605469 172.472656 C 182.808594 173.15625 182.371094 173.773438 181.523438 174.253906 L 169.730469 174.253906 C 169.15625 173.867188 168.816406 173.417969 168.746094 172.902344 C 168.171875 167.660156 170.171875 162.632812 173.253906 158.164062 C 179.625 148.949219 190.601562 142.167969 193.28125 140.960938 C 190.738281 142.820312 182.402344 151.230469 181.859375 164.125 C 181.859375 164.140625 181.859375 164.152344 181.859375 164.152344 C 181.757812 166.761719 181.960938 169.539062 182.605469 172.472656 Z M 182.605469 172.472656 "/>
</g>
<g clip-path="url(#clip13)" clip-rule="nonzero">
<path style=" stroke:none;fill-rule:nonzero;fill:rgb(59.21936%,75.689697%,11.759949%);fill-opacity:1;" d="M 139.335938 173.324219 C 139.300781 173.667969 139.097656 173.976562 138.726562 174.253906 L 127.269531 174.253906 C 128.523438 172.128906 132.21875 165.132812 128.761719 160.757812 C 128.796875 160.292969 128.863281 158.867188 128.695312 156.710938 C 128.289062 151.480469 126.5625 141.925781 119.445312 131.417969 C 119.34375 131.28125 119.273438 131.15625 119.171875 131.019531 C 119.273438 131.09375 119.410156 131.1875 119.511719 131.265625 C 127.746094 137.195312 132.59375 144.097656 135.539062 150.582031 C 136.925781 153.589844 137.910156 156.523438 138.625 159.222656 C 140.382812 165.597656 139.84375 168.859375 139.335938 173.324219 Z M 139.335938 173.324219 "/>
</g>
<g clip-path="url(#clip14)" clip-rule="nonzero">
<path style=" stroke:none;fill-rule:nonzero;fill:rgb(59.21936%,75.689697%,11.759949%);fill-opacity:1;" d="M 133.339844 173.046875 C 133.238281 173.496094 132.929688 173.914062 132.421875 174.253906 L 120.9375 174.253906 C 119.953125 173.726562 119.410156 173.011719 119.511719 172.316406 C 119.714844 171.664062 119.917969 171.027344 120.089844 170.40625 C 120.664062 168.265625 121.003906 166.21875 121.171875 164.261719 C 121.882812 156.410156 119.613281 149.988281 116.972656 145.257812 C 115.007812 141.703125 112.839844 139.113281 111.515625 137.589844 C 111.144531 137.21875 110.871094 136.90625 110.671875 136.660156 C 110.90625 136.832031 111.246094 137.0625 111.621094 137.375 C 112.941406 138.382812 114.941406 140.136719 117.175781 142.402344 C 120.902344 146.125 125.375 151.230469 128.699219 156.707031 C 131.949219 162.105469 134.117188 167.878906 133.339844 173.046875 Z M 133.339844 173.046875 "/>
</g>
<g clip-path="url(#clip15)" clip-rule="nonzero">
<path style=" stroke:none;fill-rule:nonzero;fill:rgb(59.21936%,75.689697%,11.759949%);fill-opacity:1;" d="M 226.523438 144.0625 C 223.675781 146.078125 214.628906 153.417969 212.191406 167.925781 C 211.882812 169.632812 211.679688 171.433594 211.578125 173.339844 C 211.578125 173.664062 211.378906 173.976562 211.035156 174.253906 L 199.074219 174.253906 C 198.800781 174.007812 198.667969 173.726562 198.734375 173.433594 C 199.277344 170.21875 200.902344 166.933594 203.140625 163.78125 C 209.886719 154.226562 222.1875 145.816406 226.523438 144.0625 Z M 226.523438 144.0625 "/>
</g>
<g clip-path="url(#clip16)" clip-rule="nonzero">
<path style=" stroke:none;fill-rule:nonzero;fill:rgb(59.21936%,75.689697%,11.759949%);fill-opacity:1;" d="M 122.496094 173.109375 C 122.460938 173.292969 122.394531 173.480469 122.292969 173.652344 L 122.292969 173.667969 C 122.191406 173.871094 122.019531 174.070312 121.785156 174.257812 L 106.636719 174.257812 C 106.535156 174.226562 106.46875 174.195312 106.46875 174.148438 C 105.652344 173.636719 105.210938 173 105.28125 172.332031 C 105.6875 170.671875 105.957031 169.042969 106.09375 167.460938 C 106.128906 167.445312 106.09375 167.445312 106.09375 167.429688 C 106.230469 166.421875 106.265625 165.445312 106.265625 164.46875 L 106.265625 164.34375 C 106.265625 163.382812 106.199219 162.433594 106.128906 161.503906 C 106.128906 161.429688 106.128906 161.363281 106.09375 161.300781 C 104.671875 146.828125 93.691406 136.476562 90.132812 134.320312 C 90.914062 134.617188 92.097656 135.222656 93.621094 136.105469 C 97.316406 138.261719 102.804688 142.015625 107.992188 146.75 C 111.683594 150.070312 115.207031 153.871094 117.882812 157.921875 C 117.882812 157.921875 117.882812 157.921875 117.882812 157.9375 C 119.238281 160 120.390625 162.113281 121.171875 164.265625 C 122.292969 167.179688 122.796875 170.160156 122.496094 173.109375 Z M 122.496094 173.109375 "/>
</g>
<g clip-path="url(#clip17)" clip-rule="nonzero">
<path style=" stroke:none;fill-rule:nonzero;fill:rgb(59.21936%,75.689697%,11.759949%);fill-opacity:1;" d="M 95.859375 171.324219 C 96.03125 172.316406 95.417969 173.246094 94.199219 173.960938 C 94.03125 174.070312 93.863281 174.164062 93.660156 174.253906 L 78.140625 174.253906 L 78.140625 174.238281 C 76.753906 173.601562 75.835938 172.75 75.632812 171.882812 C 75.5 169.210938 75.125 166.636719 74.617188 164.167969 C 69.496094 139.78125 48.082031 125.257812 43.300781 121.722656 C 49.128906 124.390625 79.390625 143.039062 91.386719 161.519531 C 92.234375 162.773438 92.980469 164.046875 93.589844 165.304688 C 93.589844 165.304688 93.589844 165.304688 93.589844 165.320312 C 93.589844 165.320312 93.625 165.335938 93.589844 165.351562 C 93.625 165.351562 93.625 165.367188 93.589844 165.398438 C 94.640625 167.382812 95.417969 169.382812 95.859375 171.324219 Z M 95.859375 171.324219 "/>
</g>
<g clip-path="url(#clip18)" clip-rule="nonzero">
<path style=" stroke:none;fill-rule:nonzero;fill:rgb(52.549744%,68.629456%,10.5896%);fill-opacity:1;" d="M 78.542969 173.339844 C 78.609375 173.667969 78.476562 173.960938 78.136719 174.242188 L 78.136719 174.257812 L 65.667969 174.257812 C 65.261719 173.949219 65.023438 173.589844 65.023438 173.234375 C 64.855469 169.417969 64.246094 165.972656 63.363281 162.917969 C 59.875 150.660156 51.945312 144.269531 49.265625 142.375 C 53.976562 144.296875 67.667969 153.6875 74.613281 164.175781 C 76.613281 167.179688 78.035156 170.300781 78.542969 173.339844 Z M 78.542969 173.339844 "/>
</g>
<g clip-path="url(#clip19)" clip-rule="nonzero">
<path style=" stroke:none;fill-rule:nonzero;fill:rgb(52.549744%,68.629456%,10.5896%);fill-opacity:1;" d="M 59.804688 172.828125 C 59.804688 173.3125 59.535156 173.746094 59.0625 174.117188 L 59.0625 174.132812 C 58.992188 174.179688 58.960938 174.210938 58.894531 174.257812 L 47.203125 174.257812 C 46.421875 173.792969 45.914062 173.21875 45.914062 172.644531 C 46.625 167.789062 46.222656 163.363281 45.203125 159.425781 C 42.085938 147.214844 32.9375 139.566406 30.597656 137.441406 C 34.460938 139.566406 54.960938 154.957031 59.097656 168.65625 C 59.097656 168.671875 59.097656 168.671875 59.097656 168.671875 C 59.535156 170.082031 59.773438 171.460938 59.804688 172.828125 Z M 59.804688 172.828125 "/>
</g>
<g clip-path="url(#clip20)" clip-rule="nonzero">
<path style=" stroke:none;fill-rule:nonzero;fill:rgb(59.21936%,75.689697%,11.759949%);fill-opacity:1;" d="M 41.914062 174.253906 L 33.070312 174.253906 C 32.96875 174.144531 32.902344 174.054688 32.867188 173.945312 C 29.378906 160.648438 16.09375 153.25 13.316406 151.574219 C 15.992188 152.582031 29.175781 159.253906 36.96875 166.652344 C 39.273438 168.839844 41.136719 171.089844 42.085938 173.277344 C 42.21875 173.621094 42.152344 173.960938 41.914062 174.253906 Z M 41.914062 174.253906 "/>
</g>
<g clip-path="url(#clip21)" clip-rule="nonzero">
<path style=" stroke:none;fill-rule:nonzero;fill:rgb(59.21936%,75.689697%,11.759949%);fill-opacity:1;" d="M 107.246094 172.828125 C 107.246094 173.3125 106.9375 173.761719 106.464844 174.148438 C 106.429688 174.179688 106.363281 174.226562 106.328125 174.257812 L 94.636719 174.257812 C 94.433594 174.164062 94.300781 174.070312 94.199219 173.960938 C 93.65625 173.558594 93.351562 173.109375 93.351562 172.644531 C 93.722656 170.101562 93.789062 167.679688 93.589844 165.398438 C 93.621094 165.367188 93.621094 165.351562 93.589844 165.351562 C 93.621094 165.335938 93.589844 165.320312 93.589844 165.320312 C 93.589844 165.304688 93.589844 165.304688 93.589844 165.304688 C 93.351562 161.875 92.605469 158.742188 91.519531 155.902344 C 87.726562 145.738281 80.101562 139.347656 78.035156 137.441406 C 79.761719 138.386719 84.777344 141.96875 90.199219 146.871094 C 90.199219 146.890625 90.199219 146.890625 90.199219 146.890625 C 96.570312 152.644531 103.449219 160.214844 106.089844 167.429688 C 106.089844 167.445312 106.125 167.445312 106.089844 167.460938 C 106.769531 169.277344 107.179688 171.089844 107.246094 172.828125 Z M 107.246094 172.828125 "/>
</g>
<g clip-path="url(#clip22)" clip-rule="nonzero">
<path style=" stroke:none;fill-rule:nonzero;fill:rgb(59.21936%,75.689697%,11.759949%);fill-opacity:1;" d="M 50.824219 172.8125 C 50.824219 173.355469 50.488281 173.851562 49.910156 174.257812 L 38.117188 174.257812 C 37.371094 173.824219 36.929688 173.28125 36.929688 172.675781 C 37.132812 170.59375 37.132812 168.578125 36.964844 166.652344 C 35.542969 152.148438 23.988281 141.984375 20.632812 140.046875 C 23.957031 141.253906 37.40625 149.277344 45.203125 159.421875 C 48.417969 163.644531 50.691406 168.21875 50.824219 172.8125 Z M 50.824219 172.8125 "/>
</g>
<g clip-path="url(#clip23)" clip-rule="nonzero">
<path style=" stroke:none;fill-rule:nonzero;fill:rgb(59.21936%,75.689697%,11.759949%);fill-opacity:1;" d="M 68.140625 173.695312 C 68.140625 173.898438 68.039062 174.085938 67.871094 174.253906 L 59.195312 174.253906 C 59.128906 174.226562 59.09375 174.179688 59.058594 174.132812 L 59.058594 174.117188 C 58.890625 173.929688 58.785156 173.714844 58.785156 173.511719 C 59.058594 171.820312 59.160156 170.207031 59.09375 168.667969 C 59.09375 168.667969 59.09375 168.667969 59.09375 168.652344 C 58.652344 158.089844 50.824219 151.417969 49.097656 149.757812 C 50.925781 150.796875 58.347656 156.410156 63.363281 162.914062 C 66.109375 166.449219 68.105469 170.238281 68.140625 173.695312 Z M 68.140625 173.695312 "/>
</g>
<g clip-path="url(#clip24)" clip-rule="nonzero">
<path style=" stroke:none;fill-rule:nonzero;fill:rgb(80.778503%,51.368713%,27.059937%);fill-opacity:1;" d="M 222.460938 187.859375 L 33.273438 187.859375 C 33.273438 187.859375 15.367188 356.625 70.773438 413.105469 L 184.960938 413.105469 C 240.703125 356.625 222.460938 187.859375 222.460938 187.859375 Z M 222.460938 187.859375 "/>
</g>
<g clip-path="url(#clip25)" clip-rule="nonzero">
<path style=" stroke:none;fill-rule:nonzero;fill:rgb(64.709473%,39.219666%,20.388794%);fill-opacity:1;" d="M 228.878906 204.09375 L 26.855469 204.09375 C 22.460938 204.09375 18.746094 200.371094 18.746094 195.976562 L 18.746094 181.09375 C 18.746094 176.699219 22.460938 172.976562 26.855469 172.976562 L 229.21875 172.976562 C 233.609375 172.976562 237.328125 176.699219 237.328125 181.09375 L 237.328125 195.976562 C 236.988281 200.710938 233.273438 204.09375 228.878906 204.09375 Z M 228.878906 204.09375 "/>
</g>
</g>
</svg>
